<svg width="161" height="50" viewBox="0 0 161 50" fill="none" xmlns="http://www.w3.org/2000/svg">
<path d="M84.9538 12.6072C84.9538 14.4074 83.5043 15.86 81.7011 15.86C79.8978 15.86 78.4483 14.4105 78.4483 12.6072C78.4483 10.8071 79.854 9.35445 81.7011 9.35445C83.545 9.40141 84.9538 10.8509 84.9538 12.6072ZM71.5076 19.1535C71.5076 19.4603 71.5076 19.9455 71.5076 19.9455C71.5076 19.9455 69.9704 17.9231 66.63 17.9231C61.1826 17.9231 56.9186 22.0963 56.9186 27.8536C56.9186 33.5671 61.1357 37.7841 66.63 37.7841C69.9704 37.7841 71.5076 35.7179 71.5076 35.7179V36.5538C71.5076 36.9482 71.8144 37.2582 72.212 37.2582H76.2537V18.4522C76.2537 18.4522 72.5626 18.4522 72.212 18.4522C71.8144 18.4522 71.5076 18.8028 71.5076 19.1535ZM71.5076 31.2379C70.7594 32.3367 69.266 33.3041 67.4659 33.3041C64.2569 33.3041 61.7962 31.2817 61.7962 27.9006C61.7962 24.4725 64.2569 22.497 67.4659 22.497C69.2222 22.497 70.8063 23.5082 71.5076 24.5633V31.2379ZM79.2842 18.4522H84.0741V37.302H79.2842V18.4522ZM151.124 17.9669C147.827 17.9669 146.246 19.9894 146.246 19.9894V9.40141H141.456V37.302C141.456 37.302 145.147 37.302 145.498 37.302C145.892 37.302 146.202 36.9514 146.202 36.5976V35.7617C146.202 35.7617 147.74 37.8279 151.08 37.8279C156.527 37.8279 160.791 33.6109 160.791 27.8974C160.791 22.1433 156.527 17.9669 151.124 17.9669ZM150.332 33.2165C148.488 33.2165 147.035 32.2491 146.29 31.1502V24.4287C147.038 23.4174 148.663 22.3624 150.332 22.3624C153.541 22.3624 156.001 24.3848 156.001 27.7659C156.001 31.2379 153.541 33.2165 150.332 33.2165ZM138.952 26.1411V37.3458H134.162V26.6702C134.162 23.5521 133.151 22.3217 130.471 22.3217C129.021 22.3217 127.528 23.0699 126.561 24.1657V37.302H121.771V18.4522H125.593C125.988 18.4522 126.298 18.8028 126.298 19.1566V19.9487C127.703 18.4992 129.55 17.9262 131.394 17.9262C133.504 17.9262 135.261 18.5399 136.666 19.7264C138.294 21.1759 138.952 22.976 138.952 26.1411ZM110.04 17.9669C106.743 17.9669 105.162 19.9894 105.162 19.9894V9.40141H100.372V37.302C100.372 37.302 104.063 37.302 104.414 37.302C104.809 37.302 105.119 36.9514 105.119 36.5976V35.7617C105.119 35.7617 106.656 37.8279 109.996 37.8279C115.443 37.8279 119.707 33.6109 119.707 27.8974C119.751 22.1433 115.49 17.9669 110.04 17.9669ZM109.251 33.2165C107.407 33.2165 105.954 32.2491 105.209 31.1502V24.4287C105.958 23.4174 107.582 22.3624 109.251 22.3624C112.46 22.3624 114.921 24.3848 114.921 27.7659C114.918 31.2379 112.457 33.2165 109.251 33.2165ZM96.1992 17.9669C97.6487 17.9669 98.3969 18.2299 98.3969 18.2299V22.6692C98.3969 22.6692 94.3991 21.3074 91.8945 24.1625V37.3427H87.1046V18.4491C87.1046 18.4491 90.7957 18.4491 91.1463 18.4491C91.5408 18.4491 91.8507 18.7997 91.8507 19.1535V19.9455C92.7743 18.8905 94.7059 17.9669 96.1992 17.9669ZM46.243 35.5864C45.9801 34.9728 45.7609 34.3122 45.4948 33.7862C45.1003 32.8627 44.7028 32.0299 44.3521 31.2379L44.3083 31.194C40.8364 23.6804 37.1453 16.0791 33.2351 8.56553L33.1036 8.25872C32.7091 7.51048 32.3115 6.72156 31.9171 5.88567C31.435 4.96212 30.9059 4.0417 30.1169 3.11815C28.5359 1.09573 26.2067 0 23.746 0C21.2415 0 18.9999 1.09886 17.3313 2.98666C16.583 3.91021 16.0133 4.83063 15.5311 5.75418C15.1367 6.54624 14.7391 7.33517 14.3446 8.12723L14.2131 8.43404C10.3467 15.9477 6.61184 23.5489 3.13992 31.0625L3.09609 31.1502C2.74546 31.9423 2.34786 32.8189 1.95339 33.6986C1.69042 34.2684 1.47127 34.8413 1.20516 35.4987C0.544591 37.3427 0.369273 39.1021 0.591551 40.9023C1.16133 44.681 3.66587 47.7991 7.09396 49.2079C8.41198 49.7777 9.72999 50 11.1357 50C11.5301 50 12.0592 49.9562 12.4537 49.9123C14.1223 49.6932 15.7941 49.1641 17.4628 48.1999C19.529 47.0572 21.4606 45.3885 23.6584 42.9716C25.8561 45.3885 27.8754 47.0133 29.854 48.1999C31.5226 49.1672 33.1944 49.6932 34.863 49.9123C35.2575 49.9562 35.7866 50 36.1811 50C37.5867 50 38.9924 49.737 40.2228 49.2079C43.7385 47.8023 46.1992 44.5933 46.7252 40.9023C47.1196 39.1898 46.9005 37.4335 46.243 35.5864ZM23.6584 38.1786C20.9347 34.7505 19.2191 31.5447 18.6055 28.8648C18.3425 27.7221 18.2986 26.7109 18.474 25.7905C18.5616 24.9984 18.8684 24.2972 19.266 23.6804C20.2334 22.3186 21.8144 21.4827 23.6584 21.4827C25.5023 21.4827 27.1741 22.2747 28.0507 23.6804C28.4452 24.294 28.7551 24.9984 28.8428 25.7905C28.9742 26.714 28.9304 27.7253 28.7113 28.8648C28.1384 31.5447 26.382 34.7536 23.6584 38.1786ZM43.6508 40.5516C43.3002 43.1438 41.5408 45.4292 39.0801 46.3966C37.8935 46.8787 36.5755 47.0572 35.2575 46.8787C33.9833 46.7472 32.753 46.3089 31.435 45.5607C29.6348 44.5495 27.8316 43.0123 25.7215 40.6831C29.0181 36.6414 31.0374 32.9065 31.7856 29.6099C32.1362 28.0728 32.1801 26.6671 32.0486 25.3491C31.8294 24.0749 31.388 22.9322 30.6867 21.921C29.1496 19.6794 26.5135 18.3614 23.6114 18.3614C20.7093 18.3614 18.1202 19.7232 16.5361 21.921C15.8317 22.9322 15.3934 24.0749 15.1742 25.3491C14.9551 26.6671 15.0427 28.1166 15.4372 29.6099C16.1854 32.9065 18.2486 36.6852 21.5013 40.7269C19.4351 43.0123 17.5911 44.5933 15.7878 45.6045C14.4698 46.3528 13.2395 46.7472 11.9653 46.9225C10.6034 47.054 9.32926 46.8787 8.14274 46.4404C5.68203 45.4292 3.92572 43.1877 3.57195 40.5955C3.44046 39.3213 3.52812 38.0909 4.01025 36.6852C4.14174 36.2031 4.40471 35.674 4.67082 35.1042C5.02146 34.3122 5.41905 33.4356 5.81352 32.5997L5.85735 32.5121C9.32926 25.0423 13.0203 17.441 16.8867 10.015L17.0182 9.70822C17.4127 8.95999 17.8103 8.17106 18.2047 7.42283C18.5992 6.63077 19.0406 5.88567 19.6104 5.2251C20.6654 4.03857 22.0711 3.38113 23.6083 3.38113C25.1454 3.38113 26.5511 4.0417 27.6061 5.2251C28.1759 5.88567 28.6173 6.63077 29.0118 7.42283C29.4063 8.17106 29.8039 8.95999 30.1983 9.70822L30.3298 10.015C34.1524 17.4848 37.8434 25.0861 41.3154 32.5559V32.5997C41.7098 33.3918 42.0636 34.3122 42.4581 35.1042C42.721 35.7179 42.9402 36.2031 43.1186 36.6852C43.6947 38.0033 43.87 39.2336 43.6508 40.5516Z" fill="#FF5A5F"/>
</svg>
