<svg width="198" height="38" viewBox="0 0 198 38" fill="none" xmlns="http://www.w3.org/2000/svg">
<path d="M13.2302 37.4189H5.83246V18.9704H0.79126V12.9662H5.83246V8.69432C5.83246 3.6316 8.05984 0 15.4414 0C17.0016 0 19.455 0.31205 19.455 0.31205V5.89127H16.8779C14.2578 5.89127 13.2302 6.68753 13.2302 8.89339V12.9662H19.3528L18.8094 18.9704H13.2302V37.4189ZM30.2099 12.4873C30.1023 12.4873 29.9893 12.4927 29.8817 12.4927C23.022 12.4927 19.88 17.6523 19.88 24.98C19.88 34.207 23.9528 37.9032 29.9355 37.9032C33.3573 37.9032 35.6062 36.4613 36.9728 33.7766V37.4243H44.01V12.9715H36.9728V16.7323C35.8591 14.3112 33.5456 12.5196 30.2099 12.4873ZM32.0015 18.2656C34.8853 18.2656 36.6123 20.2778 36.6123 23.6942L36.6177 27.1859C36.6177 29.4886 35.1866 32.1841 32.0015 32.1841C27.1002 32.1841 27.2293 26.89 27.2293 25.1253C27.2293 19.1964 29.8387 18.2656 32.0015 18.2656ZM46.8561 25.2006C46.8561 22.2308 46.7162 12.5088 59.3811 12.5088C64.4653 12.5088 66.5905 14.1283 66.5905 14.1283L64.885 19.4223C64.885 19.4223 62.7652 18.2549 59.9998 18.2549C56.4597 18.2549 54.2054 20.3047 54.2054 23.9148L54.2107 26.5026C54.2107 29.9728 56.3897 32.2863 60.0106 32.2863C62.5285 32.2863 64.8473 31.108 64.8473 31.108L66.5474 36.2891C66.5474 36.2891 64.6052 37.9139 59.4187 37.9139C47.3511 37.9085 46.8561 29.1873 46.8561 25.2006ZM107.856 12.4927C114.716 12.4927 117.906 17.6523 117.906 24.98C117.906 34.207 113.834 37.9032 107.851 37.9032C104.429 37.9032 101.9 36.4613 100.534 33.7766V37.4243L93.5827 37.4189V0.742463L100.959 0.096847V16.3987C102.024 13.5472 105.521 12.4927 107.856 12.4927ZM105.785 18.2656C102.901 18.2656 100.959 20.2778 100.959 23.6942L100.953 27.1859C100.948 29.4886 102.299 32.1841 105.785 32.1841C110.686 32.1841 110.557 26.89 110.557 25.1253C110.557 19.1964 107.948 18.2656 105.785 18.2656ZM79.3898 12.5142C71.6102 12.5142 67.4997 16.7592 67.4997 24.2968V25.6956C67.4997 35.4821 73.2672 38 80.1484 38C86.836 38 89.8596 36.1277 89.8596 36.1277L88.4769 31.1457C88.4769 31.1457 84.9153 32.6629 81.0308 32.6629C77.0011 32.6629 75.2687 31.6353 74.8221 27.7616H90.4461V23.7641C90.4514 15.5971 85.8353 12.5142 79.3898 12.5142ZM79.5782 17.5016C82.2736 17.5016 84.0168 19.1533 83.9199 22.984H74.8382C74.9943 18.9543 76.8773 17.5016 79.5782 17.5016ZM132.616 12.482C124.626 12.482 120.419 16.9851 120.419 25.0554C120.419 36.1277 127.671 37.9139 132.632 37.9139C139.895 37.9139 144.726 34.0026 144.726 25.1576C144.721 15.9521 139.292 12.482 132.616 12.482ZM132.513 18.2871C136.027 18.2871 137.42 20.918 137.42 23.9094V26.4811C137.42 30.1073 135.473 32.2056 132.503 32.2056C129.721 32.2056 127.768 30.2418 127.768 26.4811V23.9094C127.768 19.8958 130.092 18.2871 132.513 18.2871ZM159.42 12.482C151.43 12.482 147.223 16.9851 147.223 25.0554C147.223 36.1277 154.475 37.9139 159.436 37.9139C166.699 37.9139 171.53 34.0026 171.53 25.1576C171.525 15.9521 166.096 12.482 159.42 12.482ZM159.323 18.2871C162.836 18.2871 164.229 20.918 164.229 23.9094V26.4811C164.229 30.1073 162.282 32.2056 159.312 32.2056C156.53 32.2056 154.577 30.2418 154.577 26.4811V23.9094C154.577 19.8958 156.902 18.2871 159.323 18.2871ZM174.317 37.4189V0.742463L181.715 0.096847V24.6787L189.059 12.9662H196.876L189.22 25.0984L197.172 37.4189H189.333L181.715 25.4589V37.4189H174.317Z" fill="#1877F2"/>
</svg>
