<svg width="153" height="50" viewBox="0 0 153 50" fill="none" xmlns="http://www.w3.org/2000/svg">
<path d="M37.55 17.6568H19.7283V22.9373H32.352C31.7332 30.363 25.5451 33.4983 19.7283 33.4983C12.2613 33.4983 5.78446 27.6403 5.78446 19.4307C5.78446 11.4275 11.9725 5.28065 19.7283 5.28065C25.7101 5.28065 29.2579 9.11727 29.2579 9.11727L32.9708 5.28065C32.9708 5.28065 28.2266 0.000152588 19.5633 0.000152588C8.54847 0.000152588 0.00891113 9.32354 0.00891113 19.3482C0.00891113 29.2079 8.05342 38.8201 19.852 38.8201C30.248 38.8201 37.8387 31.6832 37.8387 21.1634C37.8387 18.9357 37.55 17.6568 37.55 17.6568Z" fill="#4285F4"/>
<path d="M52.1132 13.8202C44.8112 13.8202 39.572 19.5545 39.572 26.1964C39.572 32.962 44.6462 38.7788 52.1957 38.7788C59.0438 38.7788 64.6131 33.5396 64.6131 26.3614C64.6543 18.0693 58.1362 13.8202 52.1132 13.8202ZM52.1957 18.7294C55.7847 18.7294 59.2088 21.6172 59.2088 26.3201C59.2088 30.8993 55.826 33.9109 52.1957 33.9109C48.194 33.9109 45.0587 30.7343 45.0587 26.3201C45.0587 21.9472 48.1528 18.7294 52.1957 18.7294Z" fill="#EA4335"/>
<path d="M79.4223 13.8202C72.1203 13.8202 66.8811 19.5545 66.8811 26.1964C66.8811 32.962 71.9553 38.7788 79.5048 38.7788C86.353 38.7788 91.9222 33.5396 91.9222 26.3614C91.9222 18.0693 85.4041 13.8202 79.4223 13.8202ZM79.5048 18.7294C83.0939 18.7294 86.518 21.6172 86.518 26.3201C86.518 30.8993 83.1351 33.9109 79.5048 33.9109C75.5032 33.9109 72.3679 30.7343 72.3679 26.3201C72.3266 21.9472 75.4619 18.7294 79.5048 18.7294Z" fill="#FBBC05"/>
<path d="M106.156 13.8202C99.4315 13.8202 94.1922 19.6783 94.1922 26.2789C94.1922 33.7871 100.298 38.7788 106.073 38.7788C109.621 38.7788 111.519 37.3762 112.922 35.726V38.2013C112.922 42.4917 110.323 45.0907 106.362 45.0907C102.567 45.0907 100.628 42.2441 99.9678 40.6352L95.1823 42.6567C96.8737 46.2458 100.298 49.9999 106.403 49.9999C113.087 49.9999 118.161 45.792 118.161 37.0049V14.5628H112.922V16.6667C111.313 14.9753 109.085 13.8202 106.156 13.8202ZM106.651 18.7294C109.951 18.7294 113.334 21.5347 113.334 26.3201C113.334 31.1881 109.951 33.8696 106.61 33.8696C103.021 33.8696 99.7203 30.9818 99.7203 26.3614C99.679 21.5759 103.144 18.7294 106.651 18.7294Z" fill="#4285F4"/>
<path d="M141.386 13.8202C135.074 13.8202 129.752 18.8532 129.752 26.2789C129.752 34.1584 135.693 38.8201 142.005 38.8201C147.285 38.8201 150.544 35.9323 152.442 33.3333L148.11 30.4455C146.997 32.1782 145.099 33.8696 142.005 33.8696C138.498 33.8696 136.889 31.9307 135.899 30.0742L152.648 23.1436L151.782 21.1221C150.173 17.1205 146.378 13.8202 141.386 13.8202ZM141.634 18.6056C143.903 18.6056 145.553 19.802 146.254 21.2872L135.074 25.9488C134.579 22.3185 138.003 18.6056 141.634 18.6056Z" fill="#EA4335"/>
<path d="M127.277 1.27911H121.791V38.0776H127.277V1.27911Z" fill="#34A853"/>
</svg>
