<svg width="212" height="46" viewBox="0 0 212 46" fill="none" xmlns="http://www.w3.org/2000/svg">
<path d="M211.5 20.807V17.0893H206.895V11.3186L206.728 11.3741L202.4 12.7058H202.289V17.0893H195.464V14.6479C195.464 13.5381 195.742 12.6503 196.241 12.0954C196.741 11.5406 197.462 11.2076 198.35 11.2076C199.015 11.2076 199.681 11.3741 200.347 11.6515L200.514 11.707V7.82289L200.458 7.76741C199.848 7.54546 198.96 7.43448 197.906 7.43448C196.574 7.43448 195.353 7.71192 194.299 8.32228C193.245 8.87716 192.412 9.70947 191.802 10.7637C191.192 11.818 190.914 13.0387 190.914 14.3704V17.0338H187.696V20.7515H190.914V36.399H195.52V20.7515H202.345V30.7392C202.345 34.8453 204.287 36.8984 208.06 36.8984C208.67 36.8984 209.336 36.8429 210.002 36.6764C210.668 36.51 211.167 36.399 211.445 36.2325L211.5 36.177V32.4594L211.334 32.5703C211.056 32.7368 210.779 32.8478 210.39 32.9587C210.002 33.0697 209.725 33.1252 209.503 33.1252C208.615 33.1252 207.949 32.9033 207.561 32.4039C207.172 31.9045 206.95 31.0722 206.95 29.9069V20.807H211.5ZM177.431 33.1252C175.766 33.1252 174.435 32.5703 173.491 31.4606C172.548 30.3508 172.104 28.7972 172.104 26.7996C172.104 24.7466 172.603 23.1375 173.491 22.0277C174.435 20.918 175.711 20.3631 177.375 20.3631C178.984 20.3631 180.261 20.9179 181.149 21.9722C182.036 23.0265 182.536 24.6356 182.536 26.6887C182.536 28.7972 182.092 30.4063 181.259 31.4606C180.372 32.6258 179.095 33.1252 177.431 33.1252ZM177.597 16.6454C174.435 16.6454 171.882 17.5887 170.051 19.4198C168.22 21.2509 167.332 23.8033 167.332 27.0216C167.332 30.0734 168.22 32.4594 169.996 34.235C171.771 36.0106 174.157 36.8984 177.098 36.8984C180.205 36.8984 182.647 35.9551 184.478 34.0685C186.309 32.1819 187.197 29.685 187.197 26.5777C187.197 23.5259 186.364 21.0289 184.644 19.3088C182.98 17.5332 180.649 16.6454 177.597 16.6454ZM159.952 16.6454C157.788 16.6454 156.013 17.2003 154.625 18.31C153.238 19.4198 152.572 20.8625 152.572 22.5826C152.572 23.4704 152.739 24.3027 153.016 24.9685C153.294 25.6344 153.793 26.2447 154.404 26.7441C155.014 27.2435 155.957 27.7984 157.178 28.2978C158.232 28.7417 159.009 29.0746 159.508 29.4075C160.008 29.685 160.341 29.9624 160.507 30.2399C160.674 30.5173 160.785 30.9057 160.785 31.3496C160.785 32.6258 159.786 33.2917 157.788 33.2917C157.067 33.2917 156.179 33.1252 155.291 32.8478C154.348 32.5148 153.516 32.1264 152.739 31.5161L152.572 31.4051V35.8441L152.628 35.8996C153.294 36.177 154.126 36.4545 155.069 36.6764C156.013 36.8984 156.9 36.9539 157.677 36.9539C160.008 36.9539 161.95 36.399 163.282 35.2892C164.669 34.1795 165.39 32.6813 165.39 30.9057C165.39 29.6295 165.002 28.4643 164.28 27.5765C163.559 26.6887 162.227 25.8563 160.452 25.135C159.009 24.5801 158.121 24.0807 157.733 23.6923C157.344 23.3594 157.178 22.86 157.178 22.1942C157.178 21.6393 157.4 21.1954 157.899 20.807C158.399 20.4186 159.009 20.2521 159.841 20.2521C160.618 20.2521 161.395 20.3631 162.172 20.585C162.949 20.807 163.614 21.1399 164.225 21.5283L164.391 21.6393V17.4222L164.336 17.3667C163.781 17.1448 163.115 16.9228 162.283 16.8119C161.395 16.7564 160.618 16.6454 159.952 16.6454ZM140.532 33.1252C138.867 33.1252 137.535 32.5703 136.592 31.4606C135.649 30.3508 135.205 28.7972 135.205 26.7996C135.205 24.7466 135.704 23.1375 136.592 22.0277C137.535 20.918 138.812 20.3631 140.476 20.3631C142.085 20.3631 143.361 20.9179 144.249 21.9722C145.137 23.0265 145.636 24.6356 145.636 26.6887C145.636 28.7972 145.193 30.4063 144.36 31.4606C143.528 32.6258 142.252 33.1252 140.532 33.1252ZM140.754 16.6454C137.591 16.6454 135.038 17.5887 133.207 19.4198C131.376 21.2509 130.488 23.8033 130.488 27.0216C130.488 30.0734 131.376 32.4594 133.152 34.235C134.927 36.0106 137.313 36.8984 140.254 36.8984C143.361 36.8984 145.803 35.9551 147.634 34.0685C149.465 32.1819 150.353 29.685 150.353 26.5777C150.353 23.5259 149.521 21.0289 147.801 19.3088C146.136 17.5332 143.75 16.6454 140.754 16.6454ZM123.497 20.4741V17.1448H118.947V36.4545H123.497V26.5777C123.497 24.9131 123.885 23.5259 124.607 22.4716C125.328 21.4173 126.327 20.918 127.548 20.918C127.936 20.918 128.435 20.9734 128.935 21.1399C129.434 21.2509 129.767 21.4173 129.989 21.5838L130.155 21.6948V17.0893L130.1 17.0338C129.656 16.8674 129.101 16.7564 128.324 16.7564C127.159 16.7564 126.16 17.1448 125.273 17.8661C124.551 18.532 123.996 19.3643 123.497 20.4741ZM110.846 16.6454C108.737 16.6454 106.906 17.0893 105.297 17.9771C103.688 18.8649 102.467 20.1411 101.635 21.7503C100.803 23.3594 100.359 25.246 100.359 27.299C100.359 29.1301 100.747 30.7947 101.579 32.2929C102.412 33.7911 103.521 34.9563 104.964 35.7331C106.407 36.51 108.071 36.9539 109.958 36.9539C112.122 36.9539 113.953 36.5099 115.451 35.6776L115.507 35.6221V31.4606L115.34 31.6271C114.674 32.1264 113.898 32.5149 113.121 32.7923C112.344 33.0697 111.567 33.2362 110.957 33.2362C109.181 33.2362 107.738 32.6813 106.684 31.5716C105.63 30.4618 105.131 28.9082 105.131 26.9661C105.131 25.024 105.685 23.4149 106.795 22.2497C107.905 21.0844 109.292 20.4741 111.068 20.4741C112.566 20.4741 114.009 20.9734 115.396 21.9722L115.562 22.0832V17.6997L115.507 17.6442C115.007 17.3667 114.286 17.0893 113.398 16.9229C112.51 16.7564 111.623 16.6454 110.846 16.6454ZM97.2513 17.1448H92.7014V36.4545H97.2513V17.1448ZM95.0318 8.87716C94.3105 8.87716 93.6447 9.15459 93.0898 9.65398C92.5349 10.1534 92.2575 10.8192 92.2575 11.5406C92.2575 12.2619 92.5349 12.9277 93.0343 13.4271C93.5892 13.9265 94.1995 14.1485 94.9764 14.1485C95.7532 14.1485 96.419 13.9265 96.9184 13.4271C97.4733 12.9277 97.7507 12.3174 97.7507 11.5406C97.7507 10.8192 97.4733 10.2089 96.9739 9.65398C96.4745 9.15459 95.8087 8.87716 95.0318 8.87716ZM83.7124 15.7021V36.4545H88.3733V9.48752H81.9368L73.7801 29.5185L65.8454 9.48752H59.1869V36.4545H63.5704V15.7021H63.7369L72.1155 36.4545H75.3892L83.6014 15.7021H83.7124Z" fill="#706D6E"/>
<path d="M22.0111 21.8625H0.648376V0.499786H22.0111V21.8625Z" fill="#F1511B"/>
<path d="M45.6477 21.8625H24.285V0.499786H45.6477V21.8625Z" fill="#80CC28"/>
<path d="M22.0111 45.5002H0.648376V24.082H22.0111V45.5002Z" fill="#00ADEF"/>
<path d="M45.6477 45.5002H24.285V24.082H45.6477V45.5002Z" fill="#FBBC09"/>
</svg>
