<svg width="167" height="50" viewBox="0 0 167 50" fill="none" xmlns="http://www.w3.org/2000/svg">
<path d="M25.1721 0C11.3695 0 0.172058 11.1974 0.172058 25C0.172058 38.8026 11.3695 50 25.1721 50C38.9746 50 50.1721 38.8026 50.1721 25C50.2178 11.1974 39.0203 0 25.1721 0ZM36.6437 36.0603C36.1867 36.7916 35.2269 37.0201 34.4956 36.5631C28.5998 32.9525 21.2415 32.1755 12.5121 34.1408C11.6894 34.3236 10.8211 33.8208 10.6382 32.9525C10.4554 32.1298 10.9582 31.2614 11.8265 31.0786C21.3786 28.8848 29.5139 29.8446 36.141 33.8665C36.8722 34.3693 37.1008 35.3291 36.6437 36.0603ZM39.7059 29.2504C39.1574 30.1645 37.9234 30.4388 37.0093 29.8903C30.2909 25.777 20.0532 24.543 12.1008 26.9653C11.0496 27.2852 9.99838 26.691 9.67846 25.6856C9.35853 24.6344 9.95268 23.5832 10.9582 23.2632C20.0532 20.521 31.3421 21.8464 39.066 26.5996C39.9801 27.1481 40.3 28.3364 39.7059 29.2504ZM39.9801 22.1664C31.9362 17.3675 18.6364 16.9561 10.9125 19.287C9.67846 19.6526 8.35304 18.9671 7.98741 17.7331C7.62178 16.4991 8.30734 15.1737 9.54134 14.808C18.3622 12.1115 33.0788 12.66 42.3567 18.1444C43.4536 18.7843 43.8192 20.2468 43.1794 21.3437C42.5395 22.4406 41.077 22.8062 39.9801 22.1664ZM68.2251 23.0804C63.8832 22.0292 63.1519 21.3437 63.1519 19.7898C63.1519 18.3729 64.5231 17.3675 66.534 17.3675C68.4993 17.3675 70.4189 18.0987 72.4298 19.6069C72.4755 19.6526 72.5669 19.6526 72.6583 19.6526C72.7497 19.6526 72.7954 19.6069 72.8412 19.5155L74.9435 16.5448C75.0349 16.4077 74.9892 16.2706 74.8978 16.1792C72.4755 14.2596 69.779 13.2998 66.5797 13.2998C61.9179 13.2998 58.673 16.0877 58.673 20.1097C58.673 24.4058 61.5066 25.9141 66.3512 27.1024C70.4646 28.0622 71.1958 28.8391 71.1958 30.2559C71.1958 31.8556 69.779 32.8154 67.4938 32.8154C64.9801 32.8154 62.9234 31.947 60.5925 29.9817C60.5468 29.936 60.4554 29.8903 60.364 29.8903C60.2726 29.8903 60.2269 29.936 60.1812 29.9817L57.8046 32.8154C57.7132 32.9525 57.7132 33.0896 57.8503 33.2267C60.5468 35.6033 63.8375 36.883 67.3567 36.883C72.3841 36.883 75.6291 34.1408 75.6291 29.8903C75.6291 26.3254 73.481 24.3601 68.2251 23.0804ZM87.0093 18.83C84.8156 18.83 83.0331 19.6983 81.5706 21.4351V19.4698C81.5706 19.3327 81.4335 19.1956 81.2964 19.1956H77.4115C77.2744 19.1956 77.1373 19.3327 77.1373 19.4698V41.4534C77.1373 41.5905 77.2744 41.7276 77.4115 41.7276H81.2964C81.4335 41.7276 81.5706 41.5905 81.5706 41.4534V34.5064C83.0331 36.1517 84.8156 36.9744 87.0093 36.9744C91.077 36.9744 95.1446 33.8665 95.1446 27.925C95.1446 21.9378 91.077 18.83 87.0093 18.83ZM90.6656 27.8793C90.6656 30.8958 88.7918 33.0439 86.141 33.0439C83.4902 33.0439 81.4792 30.8501 81.4792 27.8793C81.4792 24.9543 83.4902 22.7148 86.141 22.7148C88.7461 22.7605 90.6656 24.9086 90.6656 27.8793ZM105.657 18.83C100.446 18.83 96.3786 22.8519 96.3786 27.9707C96.3786 33.0439 100.446 37.0201 105.611 37.0201C110.821 37.0201 114.934 32.9982 114.934 27.925C114.934 22.8062 110.867 18.83 105.657 18.83ZM105.657 33.0896C102.869 33.0896 100.812 30.8501 100.812 27.925C100.812 24.9543 102.823 22.8062 105.611 22.8062C108.399 22.8062 110.501 25.0457 110.501 27.9707C110.501 30.9415 108.444 33.0896 105.657 33.0896ZM126.04 19.1499H121.79V14.808C121.79 14.6709 121.653 14.5338 121.516 14.5338H117.631C117.494 14.5338 117.357 14.6709 117.357 14.808V19.1499H115.483C115.346 19.1499 115.209 19.287 115.209 19.4241V22.7605C115.209 22.8976 115.346 23.0347 115.483 23.0347H117.357V31.6271C117.357 35.1005 119.093 36.883 122.521 36.883C123.892 36.883 125.035 36.6088 126.132 35.9689C126.223 35.9232 126.269 35.8318 126.269 35.7404V32.5868C126.269 32.4954 126.223 32.404 126.132 32.3583C126.04 32.3126 125.949 32.3126 125.858 32.3583C125.126 32.7239 124.395 32.9068 123.572 32.9068C122.338 32.9068 121.79 32.3583 121.79 31.0786V23.0804H126.04C126.178 23.0804 126.315 22.9433 126.315 22.8062V19.4698C126.36 19.287 126.223 19.1956 126.04 19.1499ZM140.894 19.1956V18.6472C140.894 17.0932 141.488 16.362 142.859 16.362C143.682 16.362 144.322 16.5448 145.053 16.7733C145.145 16.819 145.236 16.7733 145.327 16.7276C145.419 16.6819 145.465 16.5905 145.465 16.4991V13.2541C145.465 13.117 145.373 13.0256 145.282 12.9799C144.505 12.7514 143.545 12.5228 142.082 12.5228C138.518 12.5228 136.644 14.5338 136.644 18.3272V19.1499H134.77C134.633 19.1499 134.496 19.287 134.496 19.4241V22.7605C134.496 22.8976 134.633 23.0347 134.77 23.0347H136.644V36.2888C136.644 36.426 136.781 36.5631 136.918 36.5631H140.803C140.94 36.5631 141.077 36.426 141.077 36.2888V23.0347H144.688L150.218 36.2888C149.578 37.66 148.984 37.9799 148.115 37.9799C147.43 37.9799 146.699 37.7971 145.967 37.3857C145.876 37.34 145.83 37.34 145.739 37.3857C145.647 37.4314 145.602 37.4771 145.556 37.5228L144.231 40.4022C144.185 40.5393 144.231 40.6764 144.368 40.7678C145.739 41.4991 146.973 41.819 148.481 41.819C151.315 41.819 152.914 40.4936 154.285 36.9287L161.004 19.6069C161.05 19.5155 161.05 19.4241 160.958 19.3327C160.912 19.2413 160.821 19.1956 160.73 19.1956H156.708C156.571 19.1956 156.479 19.287 156.433 19.3784L152.32 31.17L147.795 19.3784C147.75 19.287 147.658 19.1956 147.521 19.1956H140.894ZM132.302 19.1499H128.417C128.28 19.1499 128.143 19.287 128.143 19.4241V36.2888C128.143 36.426 128.28 36.5631 128.417 36.5631H132.302C132.439 36.5631 132.576 36.426 132.576 36.2888V19.4241C132.576 19.287 132.439 19.1499 132.302 19.1499ZM130.382 11.4717C128.828 11.4717 127.594 12.7057 127.594 14.2596C127.594 15.8135 128.828 17.0475 130.382 17.0475C131.936 17.0475 133.17 15.8135 133.17 14.2596C133.125 12.7514 131.891 11.4717 130.382 11.4717ZM164.249 24.5887C162.741 24.5887 161.507 23.3547 161.507 21.8464C161.507 20.3382 162.695 19.1042 164.249 19.1042C165.757 19.1042 166.991 20.3382 166.991 21.8464C166.991 23.3547 165.803 24.5887 164.249 24.5887ZM164.249 19.4241C162.832 19.4241 161.781 20.521 161.781 21.8921C161.781 23.2632 162.832 24.3601 164.203 24.3601C165.62 24.3601 166.671 23.2632 166.671 21.8921C166.717 20.521 165.666 19.4241 164.249 19.4241ZM164.889 22.1207L165.666 23.2175H165.026L164.34 22.2121H163.746V23.2175H163.198V20.3382H164.477C165.163 20.3382 165.574 20.6581 165.574 21.2523C165.529 21.755 165.254 22.0292 164.889 22.1207ZM164.432 20.8409H163.746V21.755H164.432C164.797 21.755 164.98 21.5722 164.98 21.298C164.98 21.0238 164.752 20.8409 164.432 20.8409Z" fill="#1ED760"/>
</svg>
